<svg width="61" height="60" viewBox="0 0 61 60" fill="none" xmlns="http://www.w3.org/2000/svg">
<rect x="0.5" width="60" height="60" rx="30" fill="#246BFD" fill-opacity="0.08"/>
<path fill-rule="evenodd" clip-rule="evenodd" d="M25.4485 18.3332H35.5635C39.5185 18.3332 42.1668 21.1099 42.1668 25.2399V34.7727C42.1668 38.8899 39.5185 41.6665 35.5635 41.6665H25.4485C21.4935 41.6665 18.8335 38.8899 18.8335 34.7727V25.2399C18.8335 21.1099 21.4935 18.3332 25.4485 18.3332ZM29.8352 33.4882L35.3768 27.9465C35.7735 27.5499 35.7735 26.9082 35.3768 26.4999C34.9802 26.1032 34.3268 26.1032 33.9302 26.4999L29.1118 31.3182L27.0702 29.2765C26.6735 28.8799 26.0202 28.8799 25.6235 29.2765C25.2268 29.6732 25.2268 30.3149 25.6235 30.7232L28.4002 33.4882C28.5985 33.6865 28.8552 33.7799 29.1118 33.7799C29.3802 33.7799 29.6368 33.6865 29.8352 33.4882Z" fill="url(#paint0_linear_0_172)"/>
<defs>
<linearGradient id="paint0_linear_0_172" x1="42.1668" y1="41.6665" x2="14.4023" y2="33.6164" gradientUnits="userSpaceOnUse">
<stop stop-color="#246BFD"/>
<stop offset="1" stop-color="#5089FD"/>
</linearGradient>
</defs>
</svg>
