<svg width="61" height="60" viewBox="0 0 61 60" fill="none" xmlns="http://www.w3.org/2000/svg">
<rect x="0.5" width="60" height="60" rx="30" fill="#FF5A5F" fill-opacity="0.08"/>
<path fill-rule="evenodd" clip-rule="evenodd" d="M25.448 18.3324H35.563C39.518 18.3324 42.1663 21.1091 42.1663 25.2391V34.7719C42.1663 38.8902 39.518 41.6657 35.563 41.6657H25.448C21.493 41.6657 18.833 38.8902 18.833 34.7719V25.2391C18.833 21.1091 21.493 18.3324 25.448 18.3324ZM30.488 26.5702C29.9397 26.5702 29.4847 26.1141 29.4847 25.5552C29.4847 24.9836 29.9397 24.5286 30.5113 24.5286C31.0713 24.5286 31.5263 24.9836 31.5263 25.5552C31.5263 26.1141 31.0713 26.5702 30.488 26.5702ZM31.5147 34.4102C31.5147 34.9702 31.0597 35.4252 30.488 35.4252C29.928 35.4252 29.473 34.9702 29.473 34.4102V29.2536C29.473 28.6924 29.928 28.2269 30.488 28.2269C31.0597 28.2269 31.5147 28.6924 31.5147 29.2536V34.4102Z" fill="url(#paint0_linear_0_184)"/>
<defs>
<linearGradient id="paint0_linear_0_184" x1="42.1663" y1="41.6657" x2="14.4018" y2="33.6156" gradientUnits="userSpaceOnUse">
<stop stop-color="#FF5A5F"/>
<stop offset="1" stop-color="#FF8A9B"/>
</linearGradient>
</defs>
</svg>
