<svg width="56" height="64" viewBox="0 0 56 64" fill="none" xmlns="http://www.w3.org/2000/svg">
<g clip-path="url(#clip0_0_405)">
<path fill-rule="evenodd" clip-rule="evenodd" d="M5.10596 0C2.30396 0 0.032959 2.272 0.032959 5.074V58.915C0.032959 61.718 2.30396 63.989 5.10596 63.989H50.88C53.681 63.989 55.954 61.718 55.954 58.915V20.31L37.051 0L5.10596 0Z" fill="#3A41F0"/>
<path d="M20.306 43.197C20.432 43.341 20.504 43.521 20.504 43.719C20.504 44.097 20.198 44.439 19.801 44.439C19.621 44.439 19.423 44.367 19.297 44.205C18.595 43.359 17.406 42.818 16.29 42.818C13.661 42.818 11.663 44.835 11.663 47.698C11.663 50.543 13.662 52.577 16.29 52.577C17.424 52.577 18.54 52.091 19.297 51.208C19.422 51.064 19.621 50.975 19.801 50.975C20.216 50.975 20.504 51.334 20.504 51.713C20.504 51.893 20.432 52.073 20.306 52.217C19.369 53.189 18.091 53.91 16.291 53.91C12.834 53.91 10.115 51.389 10.115 47.698C10.115 44.007 12.834 41.486 16.291 41.486C18.091 41.487 19.387 42.207 20.306 43.197ZM27.108 53.911C25.326 53.911 23.921 53.317 22.895 52.416C22.733 52.272 22.661 52.074 22.661 51.876C22.661 51.515 22.931 51.119 23.363 51.119C23.507 51.119 23.669 51.155 23.795 51.263C24.623 52.002 25.775 52.577 27.162 52.577C29.305 52.577 29.989 51.425 29.989 50.506C29.989 47.409 22.877 49.12 22.877 44.834C22.877 42.854 24.641 41.503 27 41.503C28.548 41.503 29.881 41.97 30.853 42.781C31.015 42.925 31.105 43.123 31.105 43.321C31.105 43.681 30.799 44.041 30.402 44.041C30.258 44.041 30.096 43.987 29.97 43.879C29.088 43.159 27.99 42.835 26.891 42.835C25.451 42.835 24.424 43.609 24.424 44.744C24.424 47.445 31.536 45.896 31.536 50.38C31.537 52.128 30.349 53.911 27.108 53.911ZM44.102 42.657L39.943 52.992C39.745 53.478 39.258 53.802 38.755 53.802H38.719C38.197 53.802 37.711 53.478 37.512 52.992L33.37 42.657C33.334 42.567 33.316 42.477 33.316 42.369C33.316 42.009 33.639 41.576 34.126 41.576C34.432 41.576 34.72 41.756 34.846 42.062L38.735 52.054L42.624 42.062C42.732 41.774 43.02 41.576 43.344 41.576C43.812 41.576 44.154 41.954 44.154 42.369C44.155 42.459 44.137 42.567 44.102 42.657Z" fill="white"/>
<path fill-rule="evenodd" clip-rule="evenodd" d="M56.001 20.357V21.357H43.201C43.201 21.357 36.889 20.097 37.073 14.65C37.073 14.65 37.281 20.357 43.076 20.357H56.001Z" fill="#3A41F0"/>
<path opacity="0.5" fill-rule="evenodd" clip-rule="evenodd" d="M37.098 0.00598145V14.567C37.098 16.223 38.202 20.358 43.202 20.358H56.002L37.098 0.00598145Z" fill="white"/>
</g>
<defs>
<clipPath id="clip0_0_405">
<rect width="56" height="64" fill="white"/>
</clipPath>
</defs>
</svg>
