<svg width="61" height="60" viewBox="0 0 61 60" fill="none" xmlns="http://www.w3.org/2000/svg">
<rect x="0.5" width="60" height="60" rx="30" fill="#246BFD" fill-opacity="0.08"/>
<path fill-rule="evenodd" clip-rule="evenodd" d="M28.9883 20.1055C28.2063 20.1055 27.5409 20.6489 27.3542 21.3814H33.634C33.4472 20.6489 32.7819 20.1055 31.9998 20.1055H28.9883ZM35.4082 21.3814H37.7194C40.1706 21.3814 42.1666 23.4016 42.1666 25.8826C42.1666 25.8826 42.0965 26.9329 42.0732 28.3955C42.0709 28.5113 42.0148 28.6247 41.9226 28.6933C41.3612 29.1079 40.8476 29.4506 40.8009 29.4742C38.8633 30.7738 36.6116 31.6882 34.2129 32.143C34.0565 32.1737 33.9025 32.0922 33.8231 31.9528C33.1507 30.7879 31.8948 30.0295 30.4941 30.0295C29.1027 30.0295 27.8351 30.7797 27.1429 31.9457C27.0624 32.0828 26.9106 32.1619 26.7554 32.1324C24.3765 31.6764 22.1249 30.7631 20.1989 29.486L19.0784 28.7063C18.985 28.6472 18.9266 28.5409 18.9266 28.4227C18.8916 27.8202 18.8333 25.8826 18.8333 25.8826C18.8333 23.4016 20.8292 21.3814 23.2805 21.3814H25.58C25.8017 19.6683 27.2375 18.3333 28.9883 18.3333H31.9998C33.7507 18.3333 35.1864 19.6683 35.4082 21.3814ZM41.7697 30.9511L41.723 30.9747C39.3652 32.5578 36.5288 33.6093 33.5523 34.0464C33.1321 34.1055 32.7119 33.8338 32.5951 33.4085C32.3383 32.4397 31.5096 31.8017 30.5174 31.8017H30.5058H30.4824C29.4902 31.8017 28.6615 32.4397 28.4047 33.4085C28.288 33.8338 27.8678 34.1055 27.4476 34.0464C24.4711 33.6093 21.6347 32.5578 19.2768 30.9747C19.2651 30.9629 19.1484 30.892 19.055 30.9511C18.95 31.0102 18.95 31.1519 18.95 31.1519L19.0317 37.1772C19.0317 39.6582 21.016 41.6666 23.4672 41.6666H37.5209C39.9722 41.6666 41.9565 39.6582 41.9565 37.1772L42.0499 31.1519C42.0499 31.1519 42.0499 31.0102 41.9448 30.9511C41.8864 30.9156 41.8164 30.9275 41.7697 30.9511ZM31.3695 35.9013C31.3695 36.3975 30.9843 36.7873 30.4941 36.7873C30.0155 36.7873 29.6186 36.3975 29.6186 35.9013V34.3772C29.6186 33.8928 30.0155 33.4912 30.4941 33.4912C30.9843 33.4912 31.3695 33.8928 31.3695 34.3772V35.9013Z" fill="url(#paint0_linear_0_199)"/>
<defs>
<linearGradient id="paint0_linear_0_199" x1="42.1666" y1="41.6666" x2="14.402" y2="33.6166" gradientUnits="userSpaceOnUse">
<stop stop-color="#246BFD"/>
<stop offset="1" stop-color="#5089FD"/>
</linearGradient>
</defs>
</svg>
