<svg width="61" height="60" viewBox="0 0 61 60" fill="none" xmlns="http://www.w3.org/2000/svg">
<rect x="0.5" width="60" height="60" rx="30" fill="#FF9800" fill-opacity="0.08"/>
<path fill-rule="evenodd" clip-rule="evenodd" d="M39.5547 30.0012C39.5547 30.9502 40.334 31.7224 41.2918 31.7224C41.7748 31.7224 42.1668 32.1109 42.1668 32.5895V35.7118C42.1668 38.3521 39.9992 40.5 37.3345 40.5H23.667C21.0023 40.5 18.8335 38.3521 18.8335 35.7118V32.5895C18.8335 32.1109 19.2255 31.7224 19.7085 31.7224C20.6675 31.7224 21.4468 30.9502 21.4468 30.0012C21.4468 29.0764 20.699 28.3804 19.7085 28.3804C19.4763 28.3804 19.2547 28.2891 19.0902 28.1261C18.9257 27.9631 18.8335 27.7423 18.8335 27.5134L18.8358 24.2893C18.8358 21.649 21.0035 19.5 23.6682 19.5H37.3322C39.9968 19.5 42.1657 21.649 42.1657 24.2893L42.1668 27.4129C42.1668 27.6417 42.0747 27.8637 41.9113 28.0255C41.7468 28.1885 41.5252 28.2799 41.2918 28.2799C40.334 28.2799 39.5547 29.0521 39.5547 30.0012ZM33.1275 30.756L34.503 29.4289C34.7422 29.2 34.825 28.8625 34.7212 28.5504C34.6185 28.2382 34.3502 28.0163 34.0258 27.9712L32.1253 27.6961L31.2748 25.9898C31.129 25.6962 30.8327 25.5135 30.5025 25.5124H30.5002C30.1712 25.5124 29.8748 25.695 29.7267 25.9887L28.8762 27.6961L26.9792 27.9701C26.6513 28.0163 26.383 28.2382 26.2792 28.5504C26.1765 28.8625 26.2593 29.2 26.4973 29.4289L27.8728 30.756L27.5485 32.6322C27.4925 32.9559 27.6243 33.2773 27.8927 33.4703C28.0443 33.5778 28.2205 33.6333 28.399 33.6333C28.5355 33.6333 28.6732 33.5998 28.7992 33.5339L30.5002 32.6484L32.1977 33.5316C32.4917 33.6877 32.8405 33.6634 33.1077 33.4692C33.3772 33.2773 33.509 32.9559 33.453 32.6322L33.1275 30.756Z" fill="url(#paint0_linear_0_160)"/>
<defs>
<linearGradient id="paint0_linear_0_160" x1="42.1668" y1="40.5" x2="14.8983" y2="31.7153" gradientUnits="userSpaceOnUse">
<stop stop-color="#FB9400"/>
<stop offset="1" stop-color="#FFAB38"/>
</linearGradient>
</defs>
</svg>
