<svg width="15" height="16" viewBox="0 0 9 10" fill="none" xmlns="http://www.w3.org/2000/svg">
<path d="M2.94444 3.26923H2.16667C1.85725 3.26923 1.5605 3.37864 1.34171 3.57339C1.12292 3.76814 1 4.03228 1 4.30769V8.46154C1 8.73696 1.12292 9.00109 1.34171 9.19584C1.5605 9.39059 1.85725 9.5 2.16667 9.5H6.83333C7.14275 9.5 7.4395 9.39059 7.65829 9.19584C7.87708 9.00109 8 8.73696 8 8.46154V4.30769C8 4.03228 7.87708 3.76814 7.65829 3.57339C7.4395 3.37864 7.14275 3.26923 6.83333 3.26923H6.05556M2.94444 5L4.5 6.38462M4.5 6.38462L6.05556 5M4.5 6.38462V0.5" stroke="white" stroke-linecap="round" stroke-linejoin="round"/>
</svg>
